<svg width="422" height="157" viewBox="0 0 422 157" fill="none" xmlns="http://www.w3.org/2000/svg">
<path d="M396.757 76.9772C396.757 86.6437 391.315 95.9189 381.324 104.419C371.335 112.918 356.852 120.594 338.911 127.05C303.034 139.961 253.436 147.956 198.629 147.956C143.821 147.956 94.2238 139.961 58.3463 127.05C40.4054 120.594 25.922 112.918 15.9332 104.419C5.94245 95.9189 0.5 86.6437 0.5 76.9772C0.5 67.3107 5.94245 58.0354 15.9332 49.5352C25.922 41.0367 40.4054 33.3607 58.3463 26.9045C94.2238 13.9936 143.821 5.99835 198.629 5.99835C253.436 5.99835 303.034 13.9936 338.911 26.9045C356.852 33.3607 371.335 41.0367 381.324 49.5352C391.315 58.0354 396.757 67.3107 396.757 76.9772Z" stroke="#A5A5A5" stroke-opacity="0.95"/>
<path d="M421.5 85.2247C421.5 94.8912 416.058 104.166 406.067 112.667C396.078 121.165 381.595 128.841 363.654 135.297C327.776 148.208 278.179 156.204 223.371 156.204C168.564 156.204 118.966 148.208 83.089 135.297C65.1481 128.841 50.6647 121.165 40.6759 112.667C30.6851 104.166 25.2427 94.8912 25.2427 85.2247C25.2427 75.5582 30.6851 66.2829 40.6759 57.7827C50.6647 49.2842 65.1481 41.6082 83.089 35.152C118.966 22.2411 168.564 14.2458 223.371 14.2458C278.179 14.2458 327.776 22.2411 363.654 35.152C381.595 41.6082 396.078 49.2842 406.067 57.7827C416.058 66.2829 421.5 75.5582 421.5 85.2247Z" stroke="#A5A5A5" stroke-opacity="0.95"/>
<path d="M409.128 71.4788C409.128 81.1453 403.686 90.4206 393.695 98.9208C383.706 107.419 369.223 115.095 351.282 121.552C315.405 134.462 265.807 142.458 211 142.458C156.192 142.458 106.595 134.462 70.7174 121.552C52.7765 115.095 38.2931 107.419 28.3043 98.9208C18.3135 90.4206 12.8711 81.1453 12.8711 71.4788C12.8711 61.8124 18.3135 52.5371 28.3043 44.0369C38.2931 35.5383 52.7765 27.8624 70.7174 21.4061C106.595 8.4952 156.192 0.5 211 0.5C265.807 0.5 315.405 8.4952 351.282 21.4061C369.223 27.8624 383.706 35.5383 393.695 44.0369C403.686 52.5371 409.128 61.8124 409.128 71.4788Z" stroke="#A5A5A5" stroke-opacity="0.95"/>
</svg>
