<svg width="252" height="70" viewBox="0 0 252 70" fill="none" xmlns="http://www.w3.org/2000/svg">
<path d="M15.876 4.912C15.624 6.1 15.282 7.36 14.976 8.188L15.966 8.53C16.434 7.36 16.92 5.488 17.262 3.904L16.452 3.616L16.236 3.67H12.114C12.276 2.842 12.42 1.996 12.528 1.132L11.286 0.915999C10.944 3.778 10.296 6.55 9.198 8.314C9.504 8.494 10.044 8.89 10.26 9.106C10.908 8.008 11.43 6.532 11.826 4.912H15.876ZM7.56 3.094H10.134V2.068H7.56V0.934H6.372V4.174H7.56V3.094ZM8.46 6.874H6.786V5.326H8.46V6.874ZM9.36 4.516H5.904V7.684H9.36V4.516ZM3.276 4.156H4.446V0.934H3.276V2.068H0.72V3.094H3.276V4.156ZM2.358 5.326H4.014V6.892H2.358V5.326ZM1.476 7.702H4.932V4.516H1.476V7.702ZM5.634 11.23H3.348V10.15H5.634V11.23ZM5.634 13.264H3.348V12.148H5.634V13.264ZM5.634 15.46H3.348V14.2H5.634V15.46ZM9.342 16.432V15.46H6.768V14.2H9.198V13.264H6.768V12.148H9.09V11.23H6.768V10.15H9.468V9.178H6.948C6.768 8.764 6.462 8.242 6.156 7.846L5.256 8.224C5.454 8.512 5.652 8.854 5.814 9.178H3.6C3.762 8.8 3.942 8.458 4.086 8.08L3.114 7.792C2.556 9.232 1.62 10.636 0.63 11.608C0.846 11.824 1.17 12.31 1.296 12.49C1.638 12.166 1.962 11.752 2.286 11.32V17.386H3.348V16.432H9.342ZM13.752 5.614H12.546V6.622C12.546 9.358 12.33 13.354 9.27 16.558C9.576 16.738 10.026 17.134 10.242 17.44C11.916 15.658 12.798 13.606 13.248 11.662C13.95 14.182 14.976 16.288 16.542 17.458C16.74 17.08 17.136 16.594 17.424 16.36C15.408 15.046 14.238 12.04 13.68 8.71C13.734 7.972 13.752 7.27 13.752 6.64V5.614ZM30.888 3.454H33.786V11.5C33.786 11.716 33.714 11.788 33.498 11.788C33.282 11.788 32.58 11.806 31.788 11.77C31.95 12.094 32.13 12.598 32.202 12.94C33.3 12.94 34.002 12.922 34.434 12.724C34.902 12.508 35.028 12.166 35.028 11.518V2.284H29.664V15.1H30.888V3.454ZM26.19 11.23V3.364C27.36 2.95 28.602 2.446 29.538 1.87L28.584 0.897999C27.738 1.51 26.262 2.194 24.948 2.68V10.834C24.948 11.554 24.498 11.95 24.192 12.112C24.408 12.364 24.66 12.886 24.75 13.192C25.074 12.94 25.596 12.724 29.124 11.518C29.088 11.23 29.034 10.708 29.034 10.348L26.19 11.23ZM22.518 3.94C22.284 3.166 21.87 1.978 21.564 1.042L20.376 1.402C20.682 2.338 21.078 3.58 21.294 4.354L22.518 3.94ZM23.112 9.286L22.878 9.34H21.654C22.122 8.098 22.698 6.586 23.13 5.29H19.44V6.496H21.456C20.97 7.918 20.394 9.448 19.908 10.51H22.248C21.96 11.806 21.51 13.228 20.97 14.254C20.412 14.614 19.8 15.352 19.17 16.252L20.106 17.458C20.61 16.324 21.204 15.19 21.618 15.19C22.014 15.19 22.698 15.802 23.418 16.234C24.732 17.026 26.316 17.224 28.656 17.224C30.798 17.224 34.218 17.116 35.55 17.026C35.586 16.63 35.784 16 35.964 15.64C33.948 15.838 31.032 16.018 28.71 16.018C26.586 16.018 24.966 15.892 23.688 15.118C23.022 14.722 22.608 14.38 22.248 14.182C22.86 12.868 23.4 11.122 23.724 9.538L23.112 9.286ZM41.886 1.006C40.86 3.742 39.204 6.424 37.44 8.152C37.692 8.458 38.052 9.142 38.196 9.466C38.808 8.8 39.438 8.062 40.014 7.234V17.332H41.292V5.236C41.994 4.012 42.624 2.716 43.146 1.384L41.886 1.006ZM45.162 8.602C44.676 10.726 43.83 12.868 42.696 14.236C43.02 14.416 43.596 14.758 43.848 14.974C44.946 13.48 45.9 11.212 46.476 8.854L45.162 8.602ZM52.776 5.632C52.632 6.55 52.47 7.504 52.362 8.152L53.478 8.368C53.712 7.414 54.036 5.866 54.27 4.552L53.352 4.336L53.136 4.39H45.846C46.206 3.4 46.53 2.356 46.8 1.312L45.486 1.024C44.892 3.652 43.848 6.226 42.534 7.882C42.822 8.08 43.38 8.53 43.596 8.728C44.244 7.882 44.838 6.82 45.342 5.632H48.078V15.748C48.078 15.982 48.006 16.054 47.772 16.054C47.538 16.054 46.764 16.072 45.918 16.036C46.098 16.414 46.314 17.008 46.386 17.386C47.52 17.386 48.276 17.35 48.762 17.116C49.23 16.9 49.392 16.504 49.392 15.748V5.632H52.776ZM50.706 8.854C51.66 10.744 52.56 13.264 52.848 14.902L54.126 14.47C53.82 12.832 52.902 10.366 51.876 8.458L50.706 8.854ZM64.026 11.644H65.214L65.664 4.66L65.7 2.536H63.54L63.594 4.66L64.026 11.644ZM64.62 16.09C65.412 16.09 66.06 15.55 66.06 14.668C66.06 13.822 65.412 13.264 64.62 13.264C63.828 13.264 63.18 13.822 63.18 14.668C63.18 15.55 63.828 16.09 64.62 16.09ZM3.438 36.636L4.086 34.62C4.554 33.126 4.986 31.704 5.4 30.156H5.472C5.904 31.686 6.318 33.126 6.804 34.62L7.434 36.636H3.438ZM9.108 42H10.872L6.39 28.806H4.536L0.054 42H1.746L3.024 37.968H7.848L9.108 42ZM13.1296 42H14.7676V34.908C15.7576 33.918 16.4416 33.414 17.4496 33.414C18.7456 33.414 19.3036 34.188 19.3036 36.024V42H20.9416V35.808C20.9416 33.306 20.0056 31.974 17.9536 31.974C16.6216 31.974 15.6136 32.712 14.6776 33.63H14.6236L14.4796 32.226H13.1296V42ZM28.0035 42.234C29.1735 42.234 30.1995 41.604 30.9735 40.848H31.0095L31.1715 42H32.5035V27.672H30.8655V31.434L30.9555 33.126C30.0915 32.406 29.3535 31.974 28.2015 31.974C25.9695 31.974 23.9715 33.954 23.9715 37.122C23.9715 40.38 25.5555 42.234 28.0035 42.234ZM28.3635 40.866C26.6355 40.866 25.6635 39.462 25.6635 37.104C25.6635 34.872 26.9055 33.36 28.4895 33.36C29.2995 33.36 30.0375 33.648 30.8655 34.386V39.516C30.0555 40.416 29.2635 40.866 28.3635 40.866ZM36.3756 42H38.0136V35.718C38.6616 34.044 39.6696 33.468 40.4796 33.468C40.8756 33.468 41.1096 33.504 41.4336 33.63L41.7396 32.19C41.4336 32.028 41.1276 31.974 40.6956 31.974C39.5976 31.974 38.6076 32.766 37.9236 34.008H37.8696L37.7256 32.226H36.3756V42ZM47.6428 42.234C48.9748 42.234 50.0188 41.784 50.8828 41.226L50.2888 40.146C49.5688 40.632 48.7948 40.92 47.8408 40.92C45.9868 40.92 44.7088 39.588 44.6008 37.5H51.1888C51.2248 37.266 51.2608 36.924 51.2608 36.564C51.2608 33.774 49.8568 31.974 47.3728 31.974C45.1048 31.974 42.9628 33.954 42.9628 37.122C42.9628 40.344 45.0508 42.234 47.6428 42.234ZM44.5828 36.33C44.7808 34.404 46.0048 33.288 47.3908 33.288C48.9208 33.288 49.8208 34.35 49.8208 36.33H44.5828ZM56.1763 42.234C57.3823 42.234 58.4803 41.604 59.4163 40.83H59.4703L59.6143 42H60.9643V35.988C60.9643 33.576 59.9563 31.974 57.5803 31.974C56.0143 31.974 54.6283 32.676 53.7283 33.252L54.3763 34.386C55.1503 33.864 56.1763 33.342 57.3103 33.342C58.9123 33.342 59.3263 34.548 59.3263 35.808C55.1683 36.276 53.3143 37.338 53.3143 39.462C53.3143 41.226 54.5383 42.234 56.1763 42.234ZM56.6443 40.92C55.6723 40.92 54.9163 40.47 54.9163 39.354C54.9163 38.094 56.0323 37.284 59.3263 36.888V39.624C58.3723 40.47 57.5983 40.92 56.6443 40.92ZM72.4499 32.1H70.2719V27.654H69.0839V33.27H72.4499V35.916H68.3279V37.104H69.2999V37.5C69.2999 38.886 69.1559 41.118 68.1659 42.774C68.4899 42.882 68.9579 43.188 69.1919 43.422C70.2899 41.622 70.4879 39.084 70.4879 37.536V37.104H72.4499V43.386H73.6919V26.97H72.4499V32.1ZM82.4759 29.454C82.0079 30.336 81.3599 31.11 80.6039 31.794C80.0639 31.056 79.1639 30.174 78.3179 29.472L78.3359 29.454H82.4759ZM83.3039 28.41L83.0699 28.464H79.4339C79.8299 28.086 80.1719 27.708 80.4599 27.312L79.1639 26.934C78.1379 28.392 76.1399 29.886 74.0159 30.75C74.2499 30.966 74.6459 31.362 74.8439 31.578C75.7619 31.164 76.6619 30.66 77.4899 30.084C78.3539 30.804 79.2539 31.758 79.7579 32.496C78.1739 33.702 76.2299 34.548 74.3399 34.998C74.5739 35.25 74.8799 35.682 75.0059 35.988C78.7859 34.944 82.5479 32.712 84.1139 28.824L83.3039 28.41ZM78.1739 31.83C76.7159 32.01 75.3839 32.19 74.3579 32.28L74.5919 33.288C75.6899 33.126 76.9319 32.964 78.2459 32.766L78.1739 31.83ZM75.5999 38.364C76.4999 39.264 77.4899 40.488 77.9039 41.316L79.0019 40.632C78.5519 39.822 77.5439 38.598 76.6259 37.752L75.5999 38.364ZM84.7079 36.132H82.3859V33.594H81.1079V36.132H74.3039V37.32H81.1079V41.604C81.1079 41.856 81.0179 41.928 80.7299 41.928C80.4599 41.946 79.4879 41.964 78.4079 41.928C78.6059 42.306 78.7859 42.828 78.8399 43.206C80.2619 43.206 81.1439 43.188 81.6839 42.972C82.2239 42.756 82.3859 42.378 82.3859 41.622V37.32H84.7079V36.132ZM103.158 36.204H95.7779V33.288H102.15V32.01H95.7779V29.094C97.9019 28.842 99.8639 28.5 101.394 28.032L100.386 26.97C97.6859 27.816 92.4659 28.284 88.2179 28.482C88.3439 28.788 88.5059 29.31 88.5599 29.67C90.4139 29.58 92.4479 29.454 94.4279 29.238V32.01H88.2359V33.288H94.4279V36.204H87.0299V37.518H94.4279V41.496C94.4279 41.874 94.2659 42 93.8699 42C93.4559 42.018 92.0519 42.036 90.5399 41.982C90.7559 42.342 91.0079 42.936 91.1159 43.314C93.0059 43.332 94.1579 43.296 94.8239 43.08C95.4899 42.864 95.7779 42.468 95.7779 41.514V37.518H103.158V36.204ZM111.078 34.8L109.062 35.394V31.812H110.916V30.57H109.062V26.952H107.748V30.57H105.588V31.812H107.748V35.754C106.83 36.024 105.984 36.258 105.318 36.438L105.678 37.716L107.748 37.104V41.838C107.748 42.072 107.658 42.144 107.442 42.144C107.262 42.162 106.614 42.162 105.93 42.144C106.11 42.486 106.272 43.026 106.326 43.368C107.37 43.386 108.036 43.332 108.45 43.116C108.882 42.9 109.062 42.558 109.062 41.838V36.69L111.258 36.042L111.078 34.8ZM115.812 29.184V34.872H113.274V29.184H115.812ZM119.628 34.872H117.072V29.184H119.628V34.872ZM114.732 41.64C113.508 41.64 113.274 41.406 113.274 40.398V36.15H119.628V37.32H120.996V27.87H111.924V40.38C111.924 42.414 112.572 42.918 114.678 42.918H119.34C121.338 42.918 121.788 42.036 122.022 39.516C121.608 39.444 121.068 39.21 120.726 38.976C120.564 41.118 120.384 41.64 119.304 41.64H114.732ZM140.238 36.204H132.858V33.288H139.23V32.01H132.858V29.094C134.982 28.842 136.944 28.5 138.474 28.032L137.466 26.97C134.766 27.816 129.546 28.284 125.298 28.482C125.424 28.788 125.586 29.31 125.64 29.67C127.494 29.58 129.528 29.454 131.508 29.238V32.01H125.316V33.288H131.508V36.204H124.11V37.518H131.508V41.496C131.508 41.874 131.346 42 130.95 42C130.536 42.018 129.132 42.036 127.62 41.982C127.836 42.342 128.088 42.936 128.196 43.314C130.086 43.332 131.238 43.296 131.904 43.08C132.57 42.864 132.858 42.468 132.858 41.514V37.518H140.238V36.204ZM148.32 34.782H144.54V31.02H148.32V34.782ZM144.54 40.29V35.97H148.32V40.29H144.54ZM146.052 26.898C145.926 27.744 145.602 28.95 145.332 29.814H143.316V42.918H144.54V41.496H149.544V29.814H146.556C146.862 29.04 147.186 28.05 147.492 27.168L146.052 26.898ZM158.346 29.76H152.964C153.27 28.914 153.522 28.05 153.738 27.168L152.46 26.862C151.884 29.328 150.912 31.812 149.706 33.396C149.994 33.576 150.57 33.936 150.804 34.152C151.434 33.306 151.992 32.208 152.496 31.002H157.068C156.834 38.166 156.564 40.902 155.97 41.532C155.79 41.766 155.592 41.802 155.232 41.802C154.818 41.802 153.738 41.802 152.568 41.694C152.82 42.072 152.982 42.612 153.018 43.008C154.026 43.062 155.052 43.098 155.682 43.026C156.294 42.972 156.708 42.81 157.104 42.306C157.824 41.424 158.058 38.652 158.346 30.444V29.76ZM155.502 37.86C154.926 36.798 153.684 35.07 152.676 33.792L151.632 34.404C152.622 35.7 153.828 37.482 154.368 38.562L155.502 37.86ZM170.37 30.21V32.046H168.138V30.21H170.37ZM166.95 30.21V33.09H171.594V30.21H173.178V31.56C173.178 32.784 173.448 33.252 174.654 33.252H176.22C176.598 33.252 176.976 33.234 177.21 33.18C177.156 32.892 177.12 32.442 177.102 32.136C176.868 32.19 176.454 32.208 176.184 32.208H174.762C174.456 32.208 174.402 32.064 174.402 31.578V30.21H177.156V29.112H174.402V27.168H173.178V29.112H171.594V27.222H170.37V29.112H168.138V27.222H166.95V29.112H165.438V27.204H164.196V29.112H161.352V30.21H164.142C163.998 31.146 163.44 32.226 161.478 32.856C161.73 33.09 162.072 33.486 162.234 33.756C164.538 32.856 165.24 31.488 165.402 30.21H166.95ZM175.176 36.924H169.848V35.43H168.534V36.924H163.458V42.324H164.772V38.022H168.534V43.35H169.848V38.022H173.862V40.902C173.862 41.1 173.79 41.172 173.52 41.19C173.268 41.19 172.332 41.19 171.324 41.172C171.504 41.514 171.684 41.964 171.756 42.324C173.106 42.324 173.952 42.324 174.51 42.126C175.032 41.928 175.176 41.586 175.176 40.902V36.924ZM161.694 37.428H162.954V35.088H175.608V37.428H176.904V33.972H161.694V37.428ZM183.582 27.006C182.556 29.742 180.9 32.424 179.136 34.152C179.388 34.458 179.748 35.142 179.892 35.466C180.504 34.8 181.134 34.062 181.71 33.234V43.332H182.988V31.236C183.69 30.012 184.32 28.716 184.842 27.384L183.582 27.006ZM186.858 34.602C186.372 36.726 185.526 38.868 184.392 40.236C184.716 40.416 185.292 40.758 185.544 40.974C186.642 39.48 187.596 37.212 188.172 34.854L186.858 34.602ZM194.472 31.632C194.328 32.55 194.166 33.504 194.058 34.152L195.174 34.368C195.408 33.414 195.732 31.866 195.966 30.552L195.048 30.336L194.832 30.39H187.542C187.902 29.4 188.226 28.356 188.496 27.312L187.182 27.024C186.588 29.652 185.544 32.226 184.23 33.882C184.518 34.08 185.076 34.53 185.292 34.728C185.94 33.882 186.534 32.82 187.038 31.632H189.774V41.748C189.774 41.982 189.702 42.054 189.468 42.054C189.234 42.054 188.46 42.072 187.614 42.036C187.794 42.414 188.01 43.008 188.082 43.386C189.216 43.386 189.972 43.35 190.458 43.116C190.926 42.9 191.088 42.504 191.088 41.748V31.632H194.472ZM192.402 34.854C193.356 36.744 194.256 39.264 194.544 40.902L195.822 40.47C195.516 38.832 194.598 36.366 193.572 34.458L192.402 34.854ZM198.18 34.26V35.718H214.524V34.26H198.18ZM232.65 33.684V32.406H225.756V30.12H231.012V28.86H225.756V26.952H224.37V32.406H221.022V28.356H219.69V32.406H216.99V33.684H224.244V39.354H225.54C223.29 40.686 220.392 41.55 216.846 42.036C217.134 42.36 217.404 42.9 217.53 43.278C224.388 42.234 228.906 39.84 231.264 35.214L230.004 34.62C229.014 36.6 227.574 38.13 225.63 39.3V33.684H232.65ZM221.13 34.458C220.284 35.916 218.88 37.374 217.512 38.328C217.818 38.544 218.304 39.066 218.52 39.336C219.906 38.238 221.436 36.546 222.408 34.89L221.13 34.458ZM235.26 34.26V35.718H251.604V34.26H235.26ZM16.794 59.684V58.406H9.9V56.12H15.156V54.86H9.9V52.952H8.514V58.406H5.166V54.356H3.834V58.406H1.134V59.684H8.388V65.354H9.684C7.434 66.686 4.536 67.55 0.99 68.036C1.278 68.36 1.548 68.9 1.674 69.278C8.532 68.234 13.05 65.84 15.408 61.214L14.148 60.62C13.158 62.6 11.718 64.13 9.774 65.3V59.684H16.794ZM5.274 60.458C4.428 61.916 3.024 63.374 1.656 64.328C1.962 64.544 2.448 65.066 2.664 65.336C4.05 64.238 5.58 62.546 6.552 60.89L5.274 60.458ZM30.096 58.82H26.73V57.074H30.096V58.82ZM30.096 61.736H26.73V59.954H30.096V61.736ZM30.096 64.742H26.73V62.87H30.096V64.742ZM25.434 66.938H26.73V65.894H35.55V64.742H31.374V62.87H34.614V61.736H31.374V59.954H34.65V58.82H31.374V57.074H35.244V55.904H32.094C31.824 55.148 31.284 54.122 30.78 53.33L29.556 53.69C29.934 54.374 30.366 55.22 30.636 55.904H27.054C27.504 55.076 27.9 54.194 28.224 53.312L27 52.97C26.19 55.238 24.84 57.38 23.274 58.748C23.526 59.018 23.94 59.63 24.102 59.9C24.552 59.45 25.002 58.946 25.434 58.388V66.938ZM22.5 55.94C22.284 55.166 21.87 53.978 21.546 53.042L20.376 53.402C20.664 54.338 21.078 55.562 21.294 56.354L22.5 55.94ZM23.112 61.286L22.878 61.34H21.636C22.122 60.098 22.68 58.586 23.13 57.29H19.44V58.496H21.438C20.952 59.918 20.394 61.448 19.89 62.51H22.248C21.96 63.806 21.492 65.228 20.952 66.254C20.412 66.614 19.782 67.352 19.152 68.252L20.07 69.458C20.592 68.324 21.204 67.19 21.6 67.19C22.014 67.19 22.68 67.802 23.4 68.234C24.732 69.026 26.298 69.224 28.674 69.224C30.798 69.224 34.218 69.116 35.55 69.026C35.586 68.63 35.784 68 35.964 67.64C33.948 67.838 31.032 68.018 28.728 68.018C26.586 68.018 24.966 67.892 23.688 67.118C23.022 66.722 22.59 66.38 22.248 66.182C22.86 64.868 23.382 63.122 23.724 61.538L23.112 61.286ZM41.22 54.032V55.364H45.648C45.684 56.048 45.756 56.84 45.882 57.668L45.09 57.542C43.992 62.582 41.778 66.2 37.8 68.27C38.16 68.504 38.754 69.062 39.006 69.332C42.588 67.226 44.856 63.95 46.188 59.288C46.998 62.69 48.906 66.632 53.334 69.314C53.568 68.99 54.108 68.414 54.414 68.198C47.358 64.004 46.944 57.218 46.944 54.032H41.22ZM62.406 64.454C61.614 64.706 60.822 64.94 60.066 65.156V60.566H62.154V59.324H60.066V55.418H62.478V54.158H56.52V55.418H58.788V59.324H56.646V60.566H58.788V65.534C57.906 65.786 57.096 65.984 56.448 66.164L56.718 67.46L62.568 65.696L62.406 64.454ZM72.846 61.916V60.692H68.256V57.524H71.964V56.3H68.256V52.952H66.978V56.3H64.962C65.16 55.58 65.322 54.788 65.448 53.978L64.206 53.762C63.9 55.958 63.324 58.082 62.37 59.486C62.694 59.63 63.216 59.954 63.468 60.152C63.918 59.432 64.296 58.532 64.638 57.524H66.978V60.692H62.442V61.916H66.348C65.232 64.202 63.324 66.434 61.416 67.55C61.686 67.784 62.118 68.252 62.316 68.558C64.044 67.388 65.79 65.354 66.978 63.104V69.368H68.256V63.032C69.318 65.138 70.794 67.172 72.234 68.36C72.468 68.018 72.9 67.568 73.188 67.334C71.568 66.2 69.858 64.058 68.85 61.916H72.846ZM76.662 57.056H78.984V57.92H76.878V58.712H78.984V59.612C77.778 59.684 76.698 59.738 75.834 59.774L75.942 60.764C77.67 60.638 80.154 60.476 82.566 60.296L82.584 59.378L80.118 59.54V58.712H82.242V57.92H80.118V57.056H82.494V56.21H76.752V55.238H89.532V56.642H90.792V54.158H84.096C83.916 53.708 83.646 53.222 83.394 52.826L82.098 53.132C82.278 53.456 82.458 53.798 82.602 54.158H75.528V56.624H76.662V57.056ZM83.736 57.866C84.006 57.614 84.24 57.362 84.456 57.092H86.004V57.866H83.736ZM90.342 58.658V57.866H87.138V57.092H89.442V56.3H84.978C85.122 56.066 85.248 55.85 85.356 55.598L84.366 55.436C84.06 56.084 83.538 56.822 82.818 57.434C83.016 57.506 83.304 57.686 83.502 57.866H82.854V58.658H86.004V59.846H84.438V58.946H83.43V60.638H89.802V58.946H88.776V59.846H87.138V58.658H90.342ZM78.822 65.336H87.696V66.2H78.822V65.336ZM78.822 63.698H87.696V64.544H78.822V63.698ZM78.822 62.078H87.696V62.906H78.822V62.078ZM89.028 67.01V61.268H77.526V67.01H80.352C79.11 67.568 76.95 68.162 75.186 68.45C75.42 68.684 75.798 69.116 75.978 69.35C77.904 69.026 80.316 68.342 81.81 67.55L80.928 67.01H85.068L84.366 67.604C86.49 68.18 88.614 68.864 89.838 69.404L91.008 68.576C89.748 68.108 87.786 67.496 85.896 67.01H89.028ZM99.324 60.782H95.544V57.02H99.324V60.782ZM95.544 66.29V61.97H99.324V66.29H95.544ZM97.056 52.898C96.93 53.744 96.606 54.95 96.336 55.814H94.32V68.918H95.544V67.496H100.548V55.814H97.56C97.866 55.04 98.19 54.05 98.496 53.168L97.056 52.898ZM109.35 55.76H103.968C104.274 54.914 104.526 54.05 104.742 53.168L103.464 52.862C102.888 55.328 101.916 57.812 100.71 59.396C100.998 59.576 101.574 59.936 101.808 60.152C102.438 59.306 102.996 58.208 103.5 57.002H108.072C107.838 64.166 107.568 66.902 106.974 67.532C106.794 67.766 106.596 67.802 106.236 67.802C105.822 67.802 104.742 67.802 103.572 67.694C103.824 68.072 103.986 68.612 104.022 69.008C105.03 69.062 106.056 69.098 106.686 69.026C107.298 68.972 107.712 68.81 108.108 68.306C108.828 67.424 109.062 64.652 109.35 56.444V55.76ZM106.506 63.86C105.93 62.798 104.688 61.07 103.68 59.792L102.636 60.404C103.626 61.7 104.832 63.482 105.372 64.562L106.506 63.86ZM124.236 58.712V63.158H120.798V58.712H124.236ZM125.604 64.4V58.712H128.286V57.416H125.604V53.24H124.236V57.416H120.798V53.024H119.484V57.416H116.208V53.438H114.822V57.416H112.212V58.712H114.822V68.216H127.782V66.902H116.208V58.712H119.484V64.4H125.604ZM135.414 64.166C135.414 65.516 135.09 67.262 131.958 68.432C132.246 68.684 132.678 69.152 132.876 69.494C136.35 68.09 136.764 65.93 136.764 64.22V63.122H135.414V64.166ZM133.974 57.632H138.096V59.576H133.974V57.632ZM133.974 54.662H138.096V56.57H133.974V54.662ZM143.568 56.57H139.41V54.662H143.568V56.57ZM143.568 59.576H139.41V57.632H143.568V59.576ZM144.936 60.71V53.528H132.66V60.71H136.242C134.874 62.114 132.714 63.32 130.644 63.914C130.95 64.184 131.328 64.67 131.544 65.012C133.902 64.184 136.386 62.6 137.862 60.71H139.842C140.526 61.61 141.444 62.42 142.434 63.122H141.102V69.35H142.47V63.14C143.604 63.914 144.864 64.544 146.142 64.94C146.322 64.598 146.718 64.076 147.024 63.806C144.882 63.266 142.758 62.114 141.408 60.71H144.936ZM156.726 63.644H157.914L158.364 56.66L158.4 54.536H156.24L156.294 56.66L156.726 63.644ZM157.32 68.09C158.112 68.09 158.76 67.55 158.76 66.668C158.76 65.822 158.112 65.264 157.32 65.264C156.528 65.264 155.88 65.822 155.88 66.668C155.88 67.55 156.528 68.09 157.32 68.09Z" fill="#4A4A4A" fill-opacity="0.95"/>
</svg>
